# Blender 4.4.0
# www.blender.org
mtllib test.mtl
o Cube
v 0.554033 0.554033 -0.554033
v 0.554033 -0.554033 -0.554033
v 0.554033 0.554033 0.554033
v 0.554033 -0.554033 0.554033
v -0.554033 0.554033 -0.554033
v -0.554033 -0.554033 -0.554033
v -0.554033 0.554033 0.554033
v -0.554033 -0.554033 0.554033
v 0.554033 1.852553 0.554033
v -0.554033 1.852553 0.554033
v 0.554033 1.852553 -0.554033
v -0.554033 1.852553 -0.554033
v 1.083220 2.989956 0.568068
v -0.024846 2.989956 0.568068
v 1.083220 2.989956 -0.539998
v -0.024846 2.989956 -0.539998
v -1.452405 0.554033 0.554033
v -1.452405 0.554033 -0.554033
v -1.452405 1.852553 0.554033
v -1.452405 1.852553 -0.554033
v -0.554033 -0.554033 1.492465
v -0.554033 0.554033 1.492465
v 0.554033 0.554033 1.492465
v 0.554033 -0.554033 1.492465
vn -0.0000 -0.0000 1.0000
vn -0.0000 1.0000 -0.0000
vn -1.0000 -0.0000 -0.0000
vn -0.0000 -1.0000 -0.0000
vn 1.0000 -0.0000 -0.0000
vn -0.0000 -0.0000 -1.0000
vn -0.0000 0.0123 -0.9999
vn 0.9067 -0.4218 -0.0000
vn -0.9067 0.4218 -0.0000
vn -0.0000 -0.0123 0.9999
vt 0.625000 1.000000
vt 0.625000 0.750000
vt 0.375000 0.000000
vt 0.625000 0.000000
vt 0.625000 0.250000
vt 0.375000 0.250000
vt 0.125000 0.500000
vt 0.375000 0.500000
vt 0.375000 0.750000
vt 0.125000 0.750000
vt 0.625000 0.500000
vt 0.875000 0.500000
vt 0.875000 0.750000
vt 0.375000 1.000000
s 0
usemtl Material
f 7/1/1 3/2/1 9/2/1 10/1/1
f 3/2/2 7/1/2 22/1/2 23/2/2
f 8/3/3 7/4/3 5/5/3 6/6/3
f 6/7/4 2/8/4 4/9/4 8/10/4
f 2/8/5 1/11/5 3/2/5 4/9/5
f 6/6/6 5/5/6 1/11/6 2/8/6
f 11/11/7 12/5/7 16/5/7 15/11/7
f 7/1/1 10/1/1 19/1/1 17/1/1
f 3/2/5 1/11/5 11/11/5 9/2/5
f 1/11/6 5/5/6 12/5/6 11/11/6
f 15/11/2 16/12/2 14/13/2 13/2/2
f 9/2/8 11/11/8 15/11/8 13/2/8
f 12/5/9 10/4/9 14/4/9 16/5/9
f 10/1/10 9/2/10 13/2/10 14/1/10
f 18/5/3 17/4/3 19/4/3 20/5/3
f 5/5/4 7/4/4 17/4/4 18/5/4
f 12/5/6 5/5/6 18/5/6 20/5/6
f 10/4/2 12/5/2 20/5/2 19/4/2
f 24/9/1 23/2/1 22/1/1 21/14/1
f 4/9/5 3/2/5 23/2/5 24/9/5
f 7/4/3 8/3/3 21/3/3 22/4/3
f 8/10/4 4/9/4 24/9/4 21/10/4
