# Blender 4.4.0
# www.blender.org
mtllib CornellBox.mtl
o Cube
v 1.050000 1.050000 -1.050000
v 1.050000 -1.050000 -1.050000
v 1.050000 1.050000 1.000000
v 1.050000 -1.050000 1.000000
v -1.050000 1.050000 -1.050000
v -1.050000 -1.050000 -1.050000
v -1.050000 1.050000 1.000000
v -1.050000 -1.050000 1.000000
v 1.000000 1.000000 -1.000000
v 1.000000 -1.000000 -1.000000
v 1.000000 1.000000 1.000000
v 1.000000 -1.000000 1.000000
v -1.000000 1.000000 -1.000000
v -1.000000 -1.000000 -1.000000
v -1.000000 1.000000 1.000000
v -1.000000 -1.000000 1.000000
vn -0.0000 1.0000 -0.0000
vn -1.0000 -0.0000 -0.0000
vn -0.0000 -1.0000 -0.0000
vn 1.0000 -0.0000 -0.0000
vn -0.0000 -0.0000 -1.0000
vn -0.0000 -0.0000 1.0000
vt 0.625000 0.500000
vt 0.875000 0.500000
vt 0.875000 0.750000
vt 0.625000 0.750000
vt 0.375000 0.000000
vt 0.625000 0.000000
vt 0.625000 0.250000
vt 0.375000 0.250000
vt 0.125000 0.500000
vt 0.375000 0.500000
vt 0.375000 0.750000
vt 0.125000 0.750000
s 0
usemtl Material
f 1/1/1 5/2/1 7/3/1 3/4/1
f 6/9/3 2/10/3 4/11/3 8/12/3
f 6/8/5 5/7/5 1/1/5 2/10/5
f 9/1/3 11/4/3 15/3/3 13/2/3
f 14/9/1 16/12/1 12/11/1 10/10/1
f 14/8/6 10/10/6 9/1/6 13/7/6
f 3/4/6 7/3/6 15/3/6 11/4/6
f 8/12/6 4/11/6 12/11/6 16/12/6
usemtl Material.001
f 2/10/4 1/1/4 3/4/4 4/11/4
f 10/10/2 12/11/2 11/4/2 9/1/2
f 4/11/6 3/4/6 11/4/6 12/11/6
usemtl Material.002
f 8/5/2 7/6/2 5/7/2 6/8/2
f 16/5/4 14/8/4 13/7/4 15/6/4
f 7/6/6 8/5/6 16/5/6 15/6/6
o Cube.001
v 0.550408 -1.010000 0.648178
v 0.550408 -0.610000 0.648178
v 0.269360 -1.010000 0.363553
v 0.269360 -0.610000 0.363553
v 0.835034 -1.010000 0.367130
v 0.835034 -0.610000 0.367130
v 0.553985 -1.010000 0.082504
v 0.553985 -0.610000 0.082504
vn -0.7116 -0.0000 0.7026
vn -0.7026 -0.0000 -0.7116
vn 0.7116 -0.0000 -0.7026
vn 0.7026 -0.0000 0.7116
vn -0.0000 -1.0000 -0.0000
vn -0.0000 1.0000 -0.0000
vt 0.375000 0.000000
vt 0.625000 0.000000
vt 0.625000 0.250000
vt 0.375000 0.250000
vt 0.625000 0.500000
vt 0.375000 0.500000
vt 0.625000 0.750000
vt 0.375000 0.750000
vt 0.625000 1.000000
vt 0.375000 1.000000
vt 0.125000 0.500000
vt 0.125000 0.750000
vt 0.875000 0.500000
vt 0.875000 0.750000
s 0
usemtl Material.003
f 17/13/7 18/14/7 20/15/7 19/16/7
f 19/16/8 20/15/8 24/17/8 23/18/8
f 23/18/9 24/17/9 22/19/9 21/20/9
f 21/20/10 22/19/10 18/21/10 17/22/10
f 19/23/11 23/18/11 21/20/11 17/24/11
f 24/17/12 20/25/12 18/26/12 22/19/12
o Cube.002
v 0.072149 -1.010800 0.238645
v 0.072149 -0.109200 0.238645
v -0.547358 -1.010800 0.414564
v -0.547358 -0.109200 0.414564
v -0.103770 -1.010800 -0.380861
v -0.103770 -0.109200 -0.380861
v -0.723277 -1.010800 -0.204943
v -0.723277 -0.109200 -0.204943
vn 0.2732 -0.0000 0.9620
vn -0.9620 -0.0000 0.2732
vn -0.2732 -0.0000 -0.9620
vn 0.9620 -0.0000 -0.2732
vn -0.0000 -1.0000 -0.0000
vn -0.0000 1.0000 -0.0000
vt 0.375000 0.000000
vt 0.625000 0.000000
vt 0.625000 0.250000
vt 0.375000 0.250000
vt 0.625000 0.500000
vt 0.375000 0.500000
vt 0.625000 0.750000
vt 0.375000 0.750000
vt 0.625000 1.000000
vt 0.375000 1.000000
vt 0.125000 0.500000
vt 0.125000 0.750000
vt 0.875000 0.500000
vt 0.875000 0.750000
s 0
usemtl Material.004
f 25/27/13 26/28/13 28/29/13 27/30/13
f 27/30/14 28/29/14 32/31/14 31/32/14
f 31/32/15 32/31/15 30/33/15 29/34/15
f 29/34/16 30/33/16 26/35/16 25/36/16
f 27/37/17 31/32/17 29/34/17 25/38/17
f 32/31/18 28/39/18 26/40/18 30/33/18
